<svg width="400" height="177" viewBox="0 0 400 177" fill="none" xmlns="http://www.w3.org/2000/svg">
<path d="M39.5914 41.3648C35.3827 41.3648 31.7753 40.4429 28.7692 38.5991C25.8031 36.7554 23.5184 34.2703 21.9151 31.1439C20.3519 28.0174 19.5703 24.5303 19.5703 20.6824C19.5703 16.7944 20.3519 13.3073 21.9151 10.221C23.5184 7.09454 25.8031 4.60945 28.7692 2.76567C31.7753 0.92189 35.3827 0 39.5914 0C42.5174 0 45.1427 0.460945 47.4675 1.38284C49.7923 2.30473 51.7964 3.62744 53.4798 5.35097C55.2034 7.0745 56.5862 9.11869 57.6283 11.4835L50.2933 17.3756C49.8925 15.6922 49.2311 14.169 48.3092 12.8063C47.4274 11.4034 46.245 10.3011 44.762 9.49948C43.319 8.65775 41.5754 8.23688 39.5312 8.23688C37.2065 8.23688 35.2424 8.77799 33.6392 9.86021C32.0359 10.9024 30.8334 12.3654 30.0318 14.2492C29.2301 16.093 28.8293 18.2374 28.8293 20.6824C28.8293 23.0873 29.2301 25.2317 30.0318 27.1156C30.8334 28.9995 32.0359 30.4825 33.6392 31.5647C35.2424 32.6068 37.2065 33.1279 39.5312 33.1279C41.5754 33.1279 43.319 32.7271 44.762 31.9255C46.245 31.0837 47.4274 29.9815 48.3092 28.6187C49.2311 27.2158 49.8925 25.6726 50.2933 23.9892L57.6283 29.8813C56.5862 32.2461 55.2034 34.2903 53.4798 36.0138C51.7964 37.7374 49.7923 39.0601 47.4675 39.982C45.1427 40.9039 42.5174 41.3648 39.5914 41.3648Z" fill="#FE3351"/>
<path d="M64.426 40.8838H55.2873L70.3782 0.601232H81.4409L96.5319 40.8838H87.0925L78.1942 15.9928L75.7893 7.45528L73.3844 15.9928L64.426 40.8838ZM86.5514 31.9255H63.7045V24.6505H86.5514V31.9255Z" fill="#FE3351"/>
<path d="M113.248 41.4851C110.683 41.4851 108.218 41.2045 105.853 40.6433C103.488 40.0421 101.324 39.1202 99.36 37.8777C97.436 36.6351 95.8328 35.0318 94.5501 33.0678L100.262 26.4542C101.184 28.1377 102.366 29.5205 103.809 30.6027C105.292 31.6449 106.895 32.4265 108.619 32.9475C110.343 33.4686 112.006 33.7292 113.609 33.7292C114.772 33.7292 115.794 33.6089 116.675 33.3684C117.597 33.0878 118.319 32.667 118.84 32.1058C119.361 31.5447 119.622 30.8032 119.622 29.8813C119.622 28.8391 119.321 28.0174 118.72 27.4162C118.159 26.7749 117.277 26.2538 116.074 25.853C114.912 25.4121 113.429 25.0113 111.625 24.6505L107.717 23.8088C106.154 23.4882 104.651 23.0673 103.208 22.5462C101.765 22.0252 100.462 21.3237 99.2999 20.4419C98.1375 19.52 97.2156 18.3977 96.5342 17.075C95.8929 15.7122 95.5722 14.0688 95.5722 12.1449C95.5722 9.49947 96.2336 7.29496 97.5563 5.53134C98.9191 3.72764 100.743 2.38489 103.028 1.50308C105.312 0.58119 107.817 0.120245 110.543 0.120245C114.311 0.120245 117.658 0.801642 120.584 2.16443C123.55 3.52723 125.874 5.41109 127.558 7.81602L121.726 14.3695C120.403 12.2852 118.66 10.6819 116.495 9.5596C114.331 8.4373 112.086 7.87615 109.761 7.87615C108.719 7.87615 107.797 8.03648 106.996 8.35713C106.194 8.63771 105.573 9.05857 105.132 9.61972C104.691 10.1408 104.47 10.7821 104.47 11.5437C104.47 13.0267 105.072 14.1089 106.274 14.7903C107.517 15.4717 109.18 16.0529 111.264 16.5339L115.834 17.6161C117.718 18.057 119.421 18.5981 120.944 19.2394C122.507 19.8808 123.85 20.6624 124.972 21.5843C126.095 22.5061 126.957 23.6284 127.558 24.9512C128.159 26.2739 128.46 27.8371 128.46 29.6408C128.46 32.206 127.798 34.3705 126.476 36.1341C125.153 37.8977 123.349 39.2405 121.064 40.1623C118.78 41.0441 116.174 41.4851 113.248 41.4851Z" fill="#FE3351"/>
<path d="M139.817 40.8838H128.274L142.523 0.601232H157.614L171.863 40.8838H160.019L152.624 18.4578L149.918 8.35713L147.212 18.4578L139.817 40.8838ZM160.56 33.3684H137.112V24.3499H160.56V33.3684Z" fill="white"/>
<path d="M181.304 40.8838H170.482V0.601232H185.513L189.481 12.3253L193.028 26.2739L196.576 12.3253L200.544 0.601232H215.575V40.8838H204.752V30.4224L206.496 10.6418L201.446 26.2739L198.86 33.669H187.196L184.611 26.2739L179.561 10.6418L181.304 30.4224V40.8838Z" fill="white"/>
<path d="M229.981 40.8838H219.158V0.601232H229.981V40.8838ZM250.002 40.8838H222.946V31.2641H250.002V40.8838ZM246.995 25.5524H222.946V15.9327H246.995V25.5524ZM250.002 10.221H222.946V0.601232H250.002V10.221Z" fill="white"/>
<path d="M261.245 40.8838H252.648V0.601232H261.005L275.314 21.6444L278.982 27.9573L278.44 18.4578V0.601232H287.038V40.8838H278.861L264.191 19.6603L260.584 13.7081L261.245 23.6886V40.8838Z" fill="#FE3351"/>
<path d="M307.681 40.8838H299.083V0.601232H307.681V40.8838ZM319.706 8.23688H287.059V0.601232H319.706V8.23688Z" fill="#FE3351"/>
<path d="M337.12 41.4249C334.114 41.4249 331.368 40.9039 328.883 39.8617C326.438 38.7795 324.314 37.2965 322.51 35.4126C320.707 33.5287 319.304 31.3242 318.302 28.799C317.34 26.2739 316.859 23.5683 316.859 20.6824C316.859 17.7965 317.34 15.111 318.302 12.6259C319.304 10.1007 320.707 7.89619 322.51 6.01232C324.314 4.12846 326.438 2.66546 328.883 1.62333C331.368 0.541108 334.114 0 337.12 0C340.126 0 342.872 0.541108 345.357 1.62333C347.842 2.66546 349.967 4.12846 351.73 6.01232C353.534 7.89619 354.917 10.1007 355.879 12.6259C356.881 15.111 357.382 17.7965 357.382 20.6824C357.382 23.5683 356.881 26.2739 355.879 28.799C354.917 31.3242 353.534 33.5287 351.73 35.4126C349.967 37.2965 347.842 38.7795 345.357 39.8617C342.872 40.9039 340.126 41.4249 337.12 41.4249ZM337.12 33.0678C339.605 33.0678 341.67 32.5467 343.313 31.5046C344.996 30.4224 346.239 28.9393 347.041 27.0555C347.882 25.1716 348.303 23.0473 348.303 20.6824C348.303 18.2775 347.882 16.1531 347.041 14.3093C346.239 12.4255 344.996 10.9625 343.313 9.92034C341.67 8.83812 339.605 8.29701 337.12 8.29701C334.675 8.29701 332.611 8.83812 330.928 9.92034C329.284 10.9625 328.042 12.4255 327.2 14.3093C326.358 16.1531 325.937 18.2775 325.937 20.6824C325.937 23.0473 326.358 25.1716 327.2 27.0555C328.042 28.9393 329.284 30.4224 330.928 31.5046C332.611 32.5467 334.675 33.0678 337.12 33.0678Z" fill="#FE3351"/>
<path d="M16.9548 97.0991C11.3433 97.0991 7.11459 95.6361 4.26875 92.7101C1.42292 89.744 0 85.1145 0 78.8216V56.2152H8.59763V78.9418C8.59763 82.3889 9.27902 84.894 10.6418 86.4572C12.0046 88.0205 14.129 88.8021 17.0149 88.8021C19.981 88.8021 22.1053 88.0205 23.3879 86.4572C24.7107 84.894 25.372 82.3889 25.372 78.9418V56.2152H33.9696V78.8216C33.9696 85.1145 32.5668 89.744 29.761 92.7101C26.9553 95.6361 22.6865 97.0991 16.9548 97.0991Z" fill="#FE3351"/>
<path d="M47.4199 96.4978H38.8223V56.2152H50.1855L56.739 71.1859L60.5267 83.1505L64.3145 71.1859L70.868 56.2152H82.2312V96.4978H73.6336V81.4069L74.8361 65.1736L70.0262 78.5811L65.036 89.5235H56.0175L51.0273 78.5811L46.1573 65.1736L47.4199 81.4069V96.4978Z" fill="#FE3351"/>
<path d="M90.873 96.4978H81.7343L96.8252 56.2152H107.888L122.979 96.4978H113.539L104.641 71.6068L102.236 63.0693L99.8314 71.6068L90.873 96.4978ZM112.998 87.5395H90.1515V80.2646H112.998V87.5395Z" fill="#FE3351"/>
<path d="M143.222 96.4978H132.4V56.2152H143.222V96.4978ZM163.243 96.4978H136.188V86.8781H163.243V96.4978ZM160.237 81.1664H136.188V71.5467H160.237V81.1664ZM163.243 65.835H136.188V56.2152H163.243V65.835Z" fill="white"/>
<path d="M182.335 97.0991C179.73 97.0991 177.205 96.8385 174.76 96.3175C172.355 95.7964 170.11 95.0148 168.026 93.9727C165.941 92.9305 164.138 91.6078 162.615 90.0045L169.348 81.2866C170.471 82.6494 171.793 83.7918 173.317 84.7137C174.84 85.6356 176.423 86.337 178.066 86.818C179.75 87.2589 181.373 87.4793 182.936 87.4793C183.858 87.4793 184.66 87.3992 185.341 87.2388C186.023 87.0785 186.544 86.838 186.904 86.5174C187.265 86.1566 187.446 85.6957 187.446 85.1345C187.446 84.4531 187.205 83.8719 186.724 83.391C186.243 82.91 185.461 82.4891 184.379 82.1284C183.297 81.7276 181.854 81.3668 180.05 81.0462L176.022 80.2646C174.299 79.9439 172.675 79.503 171.152 78.9418C169.629 78.3406 168.266 77.579 167.064 76.6572C165.901 75.6952 164.979 74.5328 164.298 73.17C163.657 71.8072 163.336 70.1638 163.336 68.2399C163.336 65.5143 164.038 63.2296 165.44 61.3858C166.883 59.502 168.807 58.0991 171.212 57.1772C173.657 56.2152 176.363 55.7343 179.329 55.7343C183.257 55.7343 186.744 56.3555 189.79 57.5981C192.877 58.8406 195.422 60.464 197.426 62.4681L190.752 71.0657C189.149 69.3822 187.165 68.0194 184.8 66.9773C182.475 65.8951 180.231 65.354 178.066 65.354C177.385 65.354 176.764 65.4341 176.202 65.5945C175.641 65.7548 175.2 65.9953 174.88 66.316C174.599 66.6366 174.459 67.0374 174.459 67.5184C174.459 68.6407 175.02 69.4624 176.142 69.9835C177.265 70.5045 178.808 70.9855 180.772 71.4264L185.522 72.5086C187.726 72.9896 189.63 73.5909 191.233 74.3123C192.877 75.0338 194.239 75.8956 195.322 76.8976C196.404 77.8997 197.206 79.0621 197.727 80.3848C198.288 81.6674 198.568 83.1505 198.568 84.8339C198.568 87.5595 197.847 89.8442 196.404 91.688C195.001 93.4917 193.077 94.8545 190.632 95.7764C188.187 96.6582 185.421 97.0991 182.335 97.0991Z" fill="white"/>
<path d="M218.24 96.9788C213.951 96.9788 210.244 96.0569 207.117 94.2132C204.031 92.3694 201.646 89.8843 199.962 86.7579C198.319 83.6315 197.497 80.1443 197.497 76.2964C197.497 72.4084 198.319 68.9213 199.962 65.835C201.646 62.7086 204.031 60.2235 207.117 58.3797C210.244 56.5359 213.951 55.614 218.24 55.614C221.126 55.614 223.731 56.0549 226.056 56.9367C228.381 57.7784 230.405 58.9809 232.128 60.5441C233.892 62.1073 235.335 63.9311 236.457 66.0153L227.439 73.7712C227.078 72.4485 226.477 71.206 225.635 70.0436C224.833 68.8812 223.811 67.9393 222.569 67.2178C221.326 66.4562 219.843 66.0755 218.12 66.0755C216.276 66.0755 214.673 66.5164 213.31 67.3982C211.987 68.2399 210.965 69.4223 210.244 70.9454C209.562 72.4686 209.221 74.2522 209.221 76.2964C209.221 78.3005 209.562 80.0842 210.244 81.6474C210.965 83.1705 211.987 84.373 213.31 85.2548C214.673 86.0965 216.276 86.5174 218.12 86.5174C219.843 86.5174 221.326 86.1566 222.569 85.4352C223.811 84.6736 224.833 83.7116 225.635 82.5492C226.477 81.3468 227.078 80.1042 227.439 78.8216L236.457 86.5775C235.335 88.6618 233.892 90.4855 232.128 92.0487C230.405 93.6119 228.381 94.8344 226.056 95.7162C223.731 96.558 221.126 96.9788 218.24 96.9788Z" fill="white"/>
<path d="M254.939 96.9788C251.892 96.9788 249.087 96.4577 246.521 95.4156C243.996 94.3334 241.812 92.8504 239.968 90.9665C238.124 89.0826 236.701 86.8981 235.699 84.4131C234.697 81.8879 234.196 79.1823 234.196 76.2964C234.196 73.4105 234.697 70.725 235.699 68.2399C236.701 65.7147 238.124 63.5102 239.968 61.6263C241.812 59.7425 243.996 58.2795 246.521 57.2373C249.087 56.1551 251.892 55.614 254.939 55.614C258.025 55.614 260.831 56.1551 263.356 57.2373C265.881 58.2795 268.066 59.7425 269.909 61.6263C271.753 63.5102 273.176 65.7147 274.178 68.2399C275.18 70.725 275.681 73.4105 275.681 76.2964C275.681 79.1823 275.18 81.8879 274.178 84.4131C273.176 86.8981 271.753 89.0826 269.909 90.9665C268.066 92.8504 265.881 94.3334 263.356 95.4156C260.831 96.4577 258.025 96.9788 254.939 96.9788ZM254.939 86.4572C257.023 86.4572 258.746 86.0163 260.109 85.1345C261.512 84.2527 262.554 83.0503 263.236 81.5271C263.917 79.9639 264.258 78.2204 264.258 76.2964C264.258 74.3324 263.917 72.5888 263.236 71.0657C262.554 69.5426 261.512 68.3401 260.109 67.4583C258.746 66.5765 257.023 66.1356 254.939 66.1356C252.854 66.1356 251.111 66.5765 249.708 67.4583C248.345 68.3401 247.323 69.5426 246.642 71.0657C245.96 72.5888 245.62 74.3324 245.62 76.2964C245.62 78.2204 245.96 79.9639 246.642 81.5271C247.323 83.0503 248.345 84.2527 249.708 85.1345C251.111 86.0163 252.854 86.4572 254.939 86.4572Z" fill="white"/>
<path d="M287.903 96.4978H277.081V56.2152H287.903V96.4978ZM307.323 96.4978H280.869V86.8781H307.323V96.4978Z" fill="white"/>
<path d="M343.395 96.4978H332.573V56.2152H343.395V96.4978ZM318.143 96.4978H307.321V56.2152H318.143V96.4978ZM336.721 81.1664H312.672V71.5467H336.721V81.1664Z" fill="white"/>
<path d="M353.518 96.4978H341.974L356.223 56.2152H371.314L385.563 96.4978H373.719L366.324 74.0719L363.618 63.9711L360.913 74.0719L353.518 96.4978ZM374.26 88.9824H350.812V79.9639H374.26V88.9824Z" fill="white"/>
<path d="M136.849 171.784C135.969 171.784 135.182 171.569 134.489 171.14C133.807 170.711 133.268 170.079 132.872 169.242C132.475 168.395 132.277 167.35 132.277 166.106C132.277 165.006 132.492 164.032 132.921 163.185C133.361 162.327 133.994 161.656 134.819 161.172C135.644 160.677 136.651 160.429 137.839 160.429C138.621 160.429 139.33 160.544 139.968 160.776C140.618 161.007 141.173 161.342 141.635 161.782C142.108 162.222 142.472 162.745 142.725 163.35L140.728 164.869C140.629 164.462 140.453 164.093 140.199 163.763C139.946 163.433 139.622 163.174 139.226 162.987C138.841 162.789 138.378 162.69 137.839 162.69C137.168 162.69 136.607 162.839 136.156 163.136C135.705 163.422 135.369 163.818 135.149 164.324C134.929 164.83 134.819 165.424 134.819 166.106C134.819 166.811 134.935 167.421 135.166 167.938C135.397 168.456 135.732 168.857 136.172 169.143C136.613 169.418 137.146 169.556 137.773 169.556C138.301 169.556 138.747 169.473 139.11 169.308C139.484 169.143 139.787 168.907 140.018 168.599C140.26 168.291 140.447 167.933 140.579 167.526H140.744L140.678 167.625C140.645 168.494 140.475 169.242 140.166 169.869C139.858 170.486 139.424 170.959 138.863 171.289C138.312 171.619 137.641 171.784 136.849 171.784ZM142.807 171.652H141.239L140.678 167.625H137.509V165.727H142.807V171.652Z" fill="white"/>
<path d="M146.282 171.652H143.922V160.594H146.216L150.144 166.371L151.151 168.104L151.003 165.496V160.594H153.363V171.652H151.118L147.091 165.826L146.101 164.192L146.282 166.932V171.652Z" fill="white"/>
<path d="M165.644 171.652H157.292V169.869L161.402 166.106C161.699 165.82 161.947 165.562 162.145 165.331C162.354 165.089 162.513 164.852 162.623 164.621C162.744 164.39 162.805 164.148 162.805 163.895C162.805 163.664 162.75 163.46 162.64 163.284C162.541 163.097 162.392 162.954 162.194 162.855C161.996 162.745 161.754 162.69 161.468 162.69C161.017 162.69 160.61 162.789 160.247 162.987C159.884 163.185 159.592 163.499 159.372 163.928C159.152 164.357 159.014 164.913 158.959 165.595L157.127 164.126C157.193 163.378 157.43 162.729 157.837 162.178C158.244 161.628 158.783 161.199 159.454 160.891C160.126 160.583 160.879 160.429 161.716 160.429C162.497 160.429 163.151 160.566 163.68 160.842C164.219 161.117 164.626 161.507 164.901 162.013C165.176 162.509 165.314 163.086 165.314 163.746C165.314 164.175 165.237 164.583 165.082 164.968C164.928 165.353 164.719 165.716 164.455 166.057C164.191 166.398 163.894 166.717 163.564 167.014C163.234 167.311 162.893 167.586 162.541 167.839L161.171 168.912L159.752 169.82L161.815 169.556H165.644V171.652Z" fill="white"/>
<path d="M168.651 166.338H166.143V163.779H168.651V166.338ZM168.651 171.652H166.143V169.094H168.651V171.652Z" fill="white"/>
<path d="M173.318 171.652H170.957V163.383H168.878V161.584C169.208 161.584 169.505 161.551 169.769 161.485C170.044 161.419 170.297 161.315 170.528 161.172C170.759 161.029 170.968 160.836 171.155 160.594H173.318V171.652Z" fill="white"/>
<path d="M178.497 171.817C176.99 171.817 175.867 171.525 175.13 170.942C174.393 170.359 174.024 169.622 174.024 168.731C174.024 168.346 174.107 167.971 174.272 167.608C174.448 167.245 174.723 166.926 175.097 166.651C175.482 166.376 175.994 166.172 176.632 166.04C176.126 165.952 175.708 165.793 175.378 165.562C175.048 165.32 174.8 165.023 174.635 164.671C174.481 164.307 174.404 163.917 174.404 163.499C174.404 162.927 174.558 162.415 174.866 161.964C175.174 161.502 175.636 161.133 176.252 160.858C176.869 160.572 177.617 160.429 178.497 160.429C179.377 160.429 180.12 160.572 180.725 160.858C181.341 161.133 181.803 161.502 182.111 161.964C182.431 162.426 182.59 162.932 182.59 163.482C182.59 164.12 182.398 164.676 182.012 165.149C181.627 165.611 181.05 165.908 180.279 166.04C180.929 166.172 181.446 166.376 181.831 166.651C182.227 166.926 182.513 167.245 182.689 167.608C182.876 167.971 182.97 168.346 182.97 168.731C182.97 169.622 182.601 170.359 181.864 170.942C181.127 171.525 180.004 171.817 178.497 171.817ZM178.497 169.638C178.948 169.638 179.3 169.572 179.553 169.44C179.817 169.308 179.999 169.132 180.098 168.912C180.208 168.692 180.263 168.456 180.263 168.203C180.263 167.938 180.197 167.696 180.065 167.476C179.933 167.245 179.735 167.064 179.471 166.932C179.218 166.8 178.893 166.734 178.497 166.734C178.101 166.734 177.771 166.8 177.507 166.932C177.254 167.064 177.061 167.245 176.929 167.476C176.797 167.696 176.731 167.938 176.731 168.203C176.731 168.456 176.78 168.692 176.88 168.912C176.99 169.132 177.177 169.308 177.441 169.44C177.705 169.572 178.057 169.638 178.497 169.638ZM178.497 165.248C178.827 165.248 179.108 165.193 179.339 165.083C179.57 164.962 179.746 164.803 179.867 164.605C179.988 164.396 180.048 164.17 180.048 163.928C180.048 163.686 179.993 163.466 179.883 163.268C179.784 163.07 179.619 162.91 179.388 162.789C179.168 162.668 178.871 162.608 178.497 162.608C178.134 162.608 177.837 162.668 177.606 162.789C177.375 162.91 177.204 163.07 177.094 163.268C176.995 163.466 176.946 163.686 176.946 163.928C176.946 164.17 176.995 164.396 177.094 164.605C177.204 164.803 177.375 164.962 177.606 165.083C177.837 165.193 178.134 165.248 178.497 165.248Z" fill="white"/>
<path d="M46.4428 140.448H33.0954V132.812H46.1422C47.6252 132.812 48.9279 132.592 50.0502 132.151C51.2126 131.71 52.1144 131.009 52.7557 130.047C53.4371 129.085 53.7778 127.822 53.7778 126.259C53.7778 124.575 53.4371 123.253 52.7557 122.291C52.1144 121.289 51.2126 120.567 50.0502 120.126C48.9279 119.685 47.6252 119.465 46.1422 119.465H33.0954V111.829H46.4428C49.5291 111.829 52.2948 112.33 54.7398 113.332C57.2249 114.334 59.1889 115.898 60.6319 118.022C62.0748 120.106 62.7963 122.852 62.7963 126.259C62.7963 129.586 62.0748 132.291 60.6319 134.376C59.229 136.46 57.285 138.003 54.7999 139.005C52.3549 139.967 49.5692 140.448 46.4428 140.448ZM38.3261 152.112H29.7285V111.829H38.3261V152.112Z" fill="#FE3351"/>
<path d="M73.3221 152.112H64.7245V111.829H73.3221V152.112ZM94.3051 152.112H67.7306V144.476H94.3051V152.112ZM90.8781 135.578H67.7306V127.942H90.8781V135.578ZM94.3051 119.465H67.7306V111.829H94.3051V119.465Z" fill="#FE3351"/>
<path d="M115.672 137.021H99.7994V130.107H114.83C116.073 130.107 117.175 129.926 118.137 129.566C119.099 129.205 119.84 128.644 120.362 127.882C120.923 127.121 121.203 126.099 121.203 124.816C121.203 123.533 120.923 122.491 120.362 121.69C119.84 120.888 119.099 120.327 118.137 120.006C117.175 119.645 116.073 119.465 114.83 119.465H99.7994V111.829H115.131C118.017 111.829 120.602 112.29 122.887 113.212C125.171 114.094 126.955 115.477 128.238 117.361C129.56 119.204 130.222 121.549 130.222 124.395C130.222 127.161 129.56 129.425 128.238 131.189C126.955 132.913 125.211 134.175 123.007 134.977C120.842 135.778 118.397 136.159 115.672 136.119V137.021ZM105.03 152.112H96.4325V111.829H105.03V152.112ZM131.785 152.112H121.865L115.071 140.689C114.269 139.366 113.347 138.424 112.305 137.863C111.303 137.302 109.92 137.021 108.156 137.021L116.453 135.578C118.057 135.698 119.379 136.039 120.422 136.6C121.504 137.121 122.426 137.803 123.187 138.644C123.949 139.486 124.69 140.488 125.412 141.65L131.785 152.112Z" fill="#FE3351"/>
<path d="M143.405 152.112H132.583V111.829H143.405V152.112ZM160.119 138.103H136.371V128.483H160.119V138.103ZM163.126 121.449H136.371V111.829H163.126V121.449Z" fill="white"/>
<path d="M174.409 152.112H163.586V111.829H174.409V152.112ZM194.43 152.112H167.374V142.492H194.43V152.112ZM191.423 136.78H167.374V127.161H191.423V136.78ZM194.43 121.449H167.374V111.829H194.43V121.449Z" fill="white"/>
<path d="M206.586 152.112H195.764V111.829H206.586V152.112Z" fill="white"/>
<path d="M228.66 152.112H217.838V111.829H228.66V152.112ZM240.264 121.449H206.234V111.829H240.264V121.449Z" fill="white"/>
<path d="M244.547 152.112H233.003L247.252 111.829H262.343L276.592 152.112H264.748L257.353 129.686L254.647 119.585L251.942 129.686L244.547 152.112ZM265.289 144.597H241.841V135.578H265.289V144.597Z" fill="white"/>
<path d="M322.641 90.3289C311.827 92.2373 303.216 100.189 300.581 110.731C299.422 115.365 299.604 121.227 301.081 125.612C304.67 136.38 317.779 150.216 347.064 174.208C349.677 176.343 350.858 176.684 352.63 175.866C353.539 175.435 357.22 172.299 366.285 164.234C382.938 149.421 392.093 139.289 396.705 130.587C398.977 126.27 400 122.181 400 117.455C400 106.959 394.252 97.6671 384.892 93.0324C382.165 91.692 380.439 91.0786 377.644 90.4652C375.077 89.9199 369.465 89.9426 366.83 90.5106C361.695 91.6239 356.743 94.1002 353.244 97.3491L351.881 98.6213L353.085 100.371C354.493 102.438 355.538 104.437 356.379 106.732L356.992 108.413L357.81 107.3C359.991 104.324 363.24 102.12 367.125 101.007C370.851 99.9163 374.395 100.007 378.121 101.302C380.848 102.234 382.347 103.211 384.664 105.528C388.163 109.027 389.526 112.094 389.731 116.933C389.844 120.341 389.481 122.272 388.095 125.112C385.255 130.928 378.235 139.243 368.216 148.649C360.264 156.101 351.245 164.098 350.904 163.984C350.427 163.825 339.976 154.942 335.023 150.535C321.028 138.016 313.008 128.679 310.782 122.34C310.214 120.682 310.146 120.25 310.146 117.228C310.146 114.116 310.191 113.82 310.85 111.935C311.759 109.413 312.736 107.8 314.53 105.846C320.347 99.5528 330.252 98.3714 337.409 103.165C340.612 105.323 343.088 108.55 344.27 112.116C345.065 114.547 345.247 118.66 344.701 121.159C343.702 125.589 339.908 131.087 332.706 138.493L329.571 141.697L333.206 144.968C335.205 146.763 337 148.263 337.159 148.308C337.818 148.444 346.496 138.721 349.382 134.586C354.039 127.952 355.925 121.613 355.243 114.934C354.607 108.504 352.176 103.142 347.859 98.6213C343.634 94.1911 338.295 91.3285 332.32 90.3289C329.707 89.8972 325.14 89.8972 322.641 90.3289Z" fill="#FE3351"/>
<path d="M282.951 91.5557C275.522 93.1233 269.41 97.19 265.344 103.301C261.027 109.822 259.8 118.228 262.118 125.748C264.367 133.109 272.523 143.514 286.041 156.282C293.016 162.871 302.626 171.345 304.671 172.731C305.716 173.458 306.829 173.663 307.988 173.344C308.964 173.072 313.508 169.437 321.028 162.916L325.095 159.395L323.845 158.236C323.164 157.623 321.483 156.055 320.097 154.783L317.598 152.466L313.963 155.578C309.442 159.463 307.192 161.303 306.965 161.303C306.874 161.303 305.102 159.804 303.012 157.986C286.904 143.81 275.931 131.769 272.659 124.657C269.956 118.75 271.046 111.889 275.476 106.982C277.635 104.574 280.611 102.779 283.928 101.87C285.927 101.302 290.494 101.302 292.516 101.87C294.22 102.325 296.742 103.551 298.264 104.642L299.332 105.392L299.786 104.415C300.536 102.688 302.035 100.28 303.444 98.5077C304.193 97.5535 304.807 96.7357 304.807 96.6902C304.807 96.463 302.126 94.7591 300.377 93.8958C298.059 92.7371 295.469 91.851 293.038 91.4421C290.357 90.965 285.45 91.0332 282.951 91.5557Z" fill="#FE3351"/>
</svg>
